<svg width="435" height="300" viewBox="0 0 435 300" fill="none" xmlns="http://www.w3.org/2000/svg">
<path d="M212.5 225H11.25V160.5C11.25 135.5 27.5 122 65 122H137.5C145.75 122 149.25 119.5 149.25 112.75V110.25C149.25 103.75 145.75 101.25 137.5 101.25H92.5C78.25 101.25 74 103.5 74 109.75V111.25H11.25V98.75C11.25 65.75 27.75 59.75 75 59.75H149.25C195.5 59.75 212.5 65.75 212.5 101.25V125.5C212.5 150.25 198.5 163 151.75 163H83.25C77.25 163 74 165.75 74 171.25V183H212.5V225ZM298.383 183H351.633C359.383 183 362.633 180.5 362.633 173.75V170.75C362.633 164 359.383 161.25 351.633 161.25H222.383V59.75H422.633V101.75H285.633V121H369.383C404.633 121 423.633 135.5 423.633 160.5V185.5C423.633 218.75 406.883 225 360.133 225H285.633C238.383 225 222.383 218.25 222.383 185.5V173H285.633V174.25C285.633 180 288.383 183 298.383 183Z" fill="url(#paint0_linear_38_2)"/>
<mask id="path-2-outside-1_38_2" maskUnits="userSpaceOnUse" x="23" y="115" width="389" height="54" fill="black">
<rect fill="white" x="23" y="115" width="389" height="54"/>
<path d="M37.24 164C35.64 164 34.16 163.6 32.8 162.8C31.44 162 30.36 160.92 29.56 159.56C28.76 158.2 28.36 156.72 28.36 155.12V129.68C28.36 128.04 28.76 126.56 29.56 125.24C30.36 123.88 31.44 122.8 32.8 122C34.16 121.2 35.64 120.8 37.24 120.8H62.62C64.26 120.8 65.74 121.2 67.06 122C68.42 122.8 69.5 123.88 70.3 125.24C71.14 126.56 71.56 128.04 71.56 129.68V133.76H62.14V130.16H37.66V154.64H62.14V148.16H52.78V138.8H71.56V155.12C71.56 156.72 71.14 158.2 70.3 159.56C69.5 160.92 68.42 162 67.06 162.8C65.74 163.6 64.26 164 62.62 164H37.24ZM75.2847 164V129.68C75.2847 128.04 75.6847 126.56 76.4847 125.24C77.2847 123.88 78.3647 122.8 79.7247 122C81.0847 121.2 82.5647 120.8 84.1647 120.8H109.545C111.185 120.8 112.665 121.2 113.985 122C115.345 122.8 116.425 123.88 117.225 125.24C118.065 126.56 118.485 128.04 118.485 129.68V164H109.065V150.08H84.5847V164H75.2847ZM84.5847 140.72H109.065V130.16H84.5847V140.72ZM137.081 164V130.16H120.161V120.8H163.361V130.16H146.441V164H137.081ZM164.968 164V120.8H204.868V130.16H174.388V137.72H198.928V147.08H174.388V154.64H204.868V164H164.968ZM222.246 164L206.526 120.8H216.426L225.846 146.54L235.266 120.8H243.846L253.326 146.54L262.746 120.8H272.586L256.866 164H249.726L239.526 136.22L229.386 164H222.246ZM272.64 164V129.68C272.64 128.04 273.04 126.56 273.84 125.24C274.64 123.88 275.72 122.8 277.08 122C278.44 121.2 279.92 120.8 281.52 120.8H306.9C308.54 120.8 310.02 121.2 311.34 122C312.7 122.8 313.78 123.88 314.58 125.24C315.42 126.56 315.84 128.04 315.84 129.68V164H306.42V150.08H281.94V164H272.64ZM281.94 140.72H306.42V130.16H281.94V140.72ZM334.526 164V147.86L314.546 120.8H325.646L339.206 137.84L352.706 120.8H363.926L343.886 147.92V164H334.526ZM372.546 164C370.946 164 369.466 163.6 368.106 162.8C366.746 162 365.666 160.92 364.866 159.56C364.066 158.2 363.666 156.72 363.666 155.12V151.1H372.966V154.64H397.446V147.08H372.546C370.946 147.08 369.466 146.68 368.106 145.88C366.746 145.08 365.666 144.02 364.866 142.7C364.066 141.34 363.666 139.84 363.666 138.2V129.68C363.666 128.04 364.066 126.56 364.866 125.24C365.666 123.88 366.746 122.8 368.106 122C369.466 121.2 370.946 120.8 372.546 120.8H397.986C399.586 120.8 401.046 121.2 402.366 122C403.726 122.8 404.806 123.88 405.606 125.24C406.446 126.56 406.866 128.04 406.866 129.68V133.7H397.446V130.16H372.966V137.72H397.986C399.586 137.72 401.046 138.12 402.366 138.92C403.726 139.72 404.806 140.8 405.606 142.16C406.446 143.48 406.866 144.96 406.866 146.6V155.12C406.866 156.72 406.446 158.2 405.606 159.56C404.806 160.92 403.726 162 402.366 162.8C401.046 163.6 399.586 164 397.986 164H372.546Z"/>
</mask>
<path d="M37.24 164C35.64 164 34.16 163.6 32.8 162.8C31.44 162 30.36 160.92 29.56 159.56C28.76 158.2 28.36 156.72 28.36 155.12V129.68C28.36 128.04 28.76 126.56 29.56 125.24C30.36 123.88 31.44 122.8 32.8 122C34.16 121.2 35.64 120.8 37.24 120.8H62.62C64.26 120.8 65.74 121.2 67.06 122C68.42 122.8 69.5 123.88 70.3 125.24C71.14 126.56 71.56 128.04 71.56 129.68V133.76H62.14V130.16H37.66V154.64H62.14V148.16H52.78V138.8H71.56V155.12C71.56 156.72 71.14 158.2 70.3 159.56C69.5 160.92 68.42 162 67.06 162.8C65.74 163.6 64.26 164 62.62 164H37.24ZM75.2847 164V129.68C75.2847 128.04 75.6847 126.56 76.4847 125.24C77.2847 123.88 78.3647 122.8 79.7247 122C81.0847 121.2 82.5647 120.8 84.1647 120.8H109.545C111.185 120.8 112.665 121.2 113.985 122C115.345 122.8 116.425 123.88 117.225 125.24C118.065 126.56 118.485 128.04 118.485 129.68V164H109.065V150.08H84.5847V164H75.2847ZM84.5847 140.72H109.065V130.16H84.5847V140.72ZM137.081 164V130.16H120.161V120.8H163.361V130.16H146.441V164H137.081ZM164.968 164V120.8H204.868V130.16H174.388V137.72H198.928V147.08H174.388V154.64H204.868V164H164.968ZM222.246 164L206.526 120.8H216.426L225.846 146.54L235.266 120.8H243.846L253.326 146.54L262.746 120.8H272.586L256.866 164H249.726L239.526 136.22L229.386 164H222.246ZM272.64 164V129.68C272.64 128.04 273.04 126.56 273.84 125.24C274.64 123.88 275.72 122.8 277.08 122C278.44 121.2 279.92 120.8 281.52 120.8H306.9C308.54 120.8 310.02 121.2 311.34 122C312.7 122.8 313.78 123.88 314.58 125.24C315.42 126.56 315.84 128.04 315.84 129.68V164H306.42V150.08H281.94V164H272.64ZM281.94 140.72H306.42V130.16H281.94V140.72ZM334.526 164V147.86L314.546 120.8H325.646L339.206 137.84L352.706 120.8H363.926L343.886 147.92V164H334.526ZM372.546 164C370.946 164 369.466 163.6 368.106 162.8C366.746 162 365.666 160.92 364.866 159.56C364.066 158.2 363.666 156.72 363.666 155.12V151.1H372.966V154.64H397.446V147.08H372.546C370.946 147.08 369.466 146.68 368.106 145.88C366.746 145.08 365.666 144.02 364.866 142.7C364.066 141.34 363.666 139.84 363.666 138.2V129.68C363.666 128.04 364.066 126.56 364.866 125.24C365.666 123.88 366.746 122.8 368.106 122C369.466 121.2 370.946 120.8 372.546 120.8H397.986C399.586 120.8 401.046 121.2 402.366 122C403.726 122.8 404.806 123.88 405.606 125.24C406.446 126.56 406.866 128.04 406.866 129.68V133.7H397.446V130.16H372.966V137.72H397.986C399.586 137.72 401.046 138.12 402.366 138.92C403.726 139.72 404.806 140.8 405.606 142.16C406.446 143.48 406.866 144.96 406.866 146.6V155.12C406.866 156.72 406.446 158.2 405.606 159.56C404.806 160.92 403.726 162 402.366 162.8C401.046 163.6 399.586 164 397.986 164H372.546Z" fill="white"/>
<path d="M32.8 162.8L35.3351 158.49L35.3351 158.49L32.8 162.8ZM29.56 159.56L33.8697 157.025L33.8697 157.025L29.56 159.56ZM29.56 125.24L33.836 127.832L33.853 127.803L33.8697 127.775L29.56 125.24ZM32.8 122L30.2649 117.69L30.2649 117.69L32.8 122ZM67.06 122L64.4685 126.276L64.4966 126.293L64.5249 126.31L67.06 122ZM70.3 125.24L65.9903 127.775L66.0347 127.851L66.0817 127.924L70.3 125.24ZM71.56 133.76V138.76H76.56V133.76H71.56ZM62.14 133.76H57.14V138.76H62.14V133.76ZM62.14 130.16H67.14V125.16H62.14V130.16ZM37.66 130.16V125.16H32.66V130.16H37.66ZM37.66 154.64H32.66V159.64H37.66V154.64ZM62.14 154.64V159.64H67.14V154.64H62.14ZM62.14 148.16H67.14V143.16H62.14V148.16ZM52.78 148.16H47.78V153.16H52.78V148.16ZM52.78 138.8V133.8H47.78V138.8H52.78ZM71.56 138.8H76.56V133.8H71.56V138.8ZM70.3 159.56L66.046 156.933L66.0177 156.978L65.9903 157.025L70.3 159.56ZM67.06 162.8L64.5249 158.49L64.4966 158.507L64.4685 158.524L67.06 162.8ZM37.24 164V159C36.5183 159 35.9155 158.832 35.3351 158.49L32.8 162.8L30.2649 167.11C32.4045 168.368 34.7617 169 37.24 169V164ZM32.8 162.8L35.3351 158.49C34.7079 158.121 34.2386 157.652 33.8697 157.025L29.56 159.56L25.2503 162.095C26.4814 164.188 28.1721 165.879 30.2649 167.11L32.8 162.8ZM29.56 159.56L33.8697 157.025C33.5283 156.445 33.36 155.842 33.36 155.12H28.36H23.36C23.36 157.598 23.9917 159.955 25.2503 162.095L29.56 159.56ZM28.36 155.12H33.36V129.68H28.36H23.36V155.12H28.36ZM28.36 129.68H33.36C33.36 128.894 33.5395 128.321 33.836 127.832L29.56 125.24L25.284 122.648C23.9805 124.799 23.36 127.186 23.36 129.68H28.36ZM29.56 125.24L33.8697 127.775C34.2386 127.148 34.7079 126.679 35.3351 126.31L32.8 122L30.2649 117.69C28.1721 118.921 26.4814 120.612 25.2503 122.705L29.56 125.24ZM32.8 122L35.3351 126.31C35.9155 125.968 36.5183 125.8 37.24 125.8V120.8V115.8C34.7617 115.8 32.4046 116.432 30.2649 117.69L32.8 122ZM37.24 120.8V125.8H62.62V120.8V115.8H37.24V120.8ZM62.62 120.8V125.8C63.4057 125.8 63.9793 125.98 64.4685 126.276L67.06 122L69.6515 117.724C67.5007 116.42 65.1143 115.8 62.62 115.8V120.8ZM67.06 122L64.5249 126.31C65.1521 126.679 65.6214 127.148 65.9903 127.775L70.3 125.24L74.6097 122.705C73.3786 120.612 71.6879 118.921 69.5951 117.69L67.06 122ZM70.3 125.24L66.0817 127.924C66.3859 128.402 66.56 128.943 66.56 129.68H71.56H76.56C76.56 127.137 75.8941 124.718 74.5183 122.556L70.3 125.24ZM71.56 129.68H66.56V133.76H71.56H76.56V129.68H71.56ZM71.56 133.76V128.76H62.14V133.76V138.76H71.56V133.76ZM62.14 133.76H67.14V130.16H62.14H57.14V133.76H62.14ZM62.14 130.16V125.16H37.66V130.16V135.16H62.14V130.16ZM37.66 130.16H32.66V154.64H37.66H42.66V130.16H37.66ZM37.66 154.64V159.64H62.14V154.64V149.64H37.66V154.64ZM62.14 154.64H67.14V148.16H62.14H57.14V154.64H62.14ZM62.14 148.16V143.16H52.78V148.16V153.16H62.14V148.16ZM52.78 148.16H57.78V138.8H52.78H47.78V148.16H52.78ZM52.78 138.8V143.8H71.56V138.8V133.8H52.78V138.8ZM71.56 138.8H66.56V155.12H71.56H76.56V138.8H71.56ZM71.56 155.12H66.56C66.56 155.793 66.3978 156.363 66.046 156.933L70.3 159.56L74.554 162.187C75.8822 160.037 76.56 157.647 76.56 155.12H71.56ZM70.3 159.56L65.9903 157.025C65.6214 157.652 65.1521 158.121 64.5249 158.49L67.06 162.8L69.5951 167.11C71.6879 165.879 73.3786 164.188 74.6097 162.095L70.3 159.56ZM67.06 162.8L64.4685 158.524C63.9793 158.82 63.4057 159 62.62 159V164V169C65.1143 169 67.5007 168.38 69.6515 167.076L67.06 162.8ZM62.62 164V159H37.24V164V169H62.62V164ZM75.2847 164H70.2847V169H75.2847V164ZM76.4847 125.24L80.7607 127.832L80.7777 127.803L80.7944 127.775L76.4847 125.24ZM79.7247 122L77.1896 117.69L77.1896 117.69L79.7247 122ZM113.985 122L111.393 126.276L111.421 126.293L111.45 126.31L113.985 122ZM117.225 125.24L112.915 127.775L112.959 127.851L113.006 127.924L117.225 125.24ZM118.485 164V169H123.485V164H118.485ZM109.065 164H104.065V169H109.065V164ZM109.065 150.08H114.065V145.08H109.065V150.08ZM84.5847 150.08V145.08H79.5847V150.08H84.5847ZM84.5847 164V169H89.5847V164H84.5847ZM84.5847 140.72H79.5847V145.72H84.5847V140.72ZM109.065 140.72V145.72H114.065V140.72H109.065ZM109.065 130.16H114.065V125.16H109.065V130.16ZM84.5847 130.16V125.16H79.5847V130.16H84.5847ZM75.2847 164H80.2847V129.68H75.2847H70.2847V164H75.2847ZM75.2847 129.68H80.2847C80.2847 128.894 80.4642 128.321 80.7607 127.832L76.4847 125.24L72.2087 122.648C70.9052 124.799 70.2847 127.186 70.2847 129.68H75.2847ZM76.4847 125.24L80.7944 127.775C81.1633 127.148 81.6326 126.679 82.2598 126.31L79.7247 122L77.1896 117.69C75.0968 118.921 73.4061 120.612 72.175 122.705L76.4847 125.24ZM79.7247 122L82.2598 126.31C82.8401 125.968 83.443 125.8 84.1647 125.8V120.8V115.8C81.6864 115.8 79.3292 116.432 77.1896 117.69L79.7247 122ZM84.1647 120.8V125.8H109.545V120.8V115.8H84.1647V120.8ZM109.545 120.8V125.8C110.33 125.8 110.904 125.98 111.393 126.276L113.985 122L116.576 117.724C114.425 116.42 112.039 115.8 109.545 115.8V120.8ZM113.985 122L111.45 126.31C112.077 126.679 112.546 127.148 112.915 127.775L117.225 125.24L121.534 122.705C120.303 120.612 118.613 118.921 116.52 117.69L113.985 122ZM117.225 125.24L113.006 127.924C113.311 128.402 113.485 128.943 113.485 129.68H118.485H123.485C123.485 127.137 122.819 124.718 121.443 122.556L117.225 125.24ZM118.485 129.68H113.485V164H118.485H123.485V129.68H118.485ZM118.485 164V159H109.065V164V169H118.485V164ZM109.065 164H114.065V150.08H109.065H104.065V164H109.065ZM109.065 150.08V145.08H84.5847V150.08V155.08H109.065V150.08ZM84.5847 150.08H79.5847V164H84.5847H89.5847V150.08H84.5847ZM84.5847 164V159H75.2847V164V169H84.5847V164ZM84.5847 140.72V145.72H109.065V140.72V135.72H84.5847V140.72ZM109.065 140.72H114.065V130.16H109.065H104.065V140.72H109.065ZM109.065 130.16V125.16H84.5847V130.16V135.16H109.065V130.16ZM84.5847 130.16H79.5847V140.72H84.5847H89.5847V130.16H84.5847ZM137.081 164H132.081V169H137.081V164ZM137.081 130.16H142.081V125.16H137.081V130.16ZM120.161 130.16H115.161V135.16H120.161V130.16ZM120.161 120.8V115.8H115.161V120.8H120.161ZM163.361 120.8H168.361V115.8H163.361V120.8ZM163.361 130.16V135.16H168.361V130.16H163.361ZM146.441 130.16V125.16H141.441V130.16H146.441ZM146.441 164V169H151.441V164H146.441ZM137.081 164H142.081V130.16H137.081H132.081V164H137.081ZM137.081 130.16V125.16H120.161V130.16V135.16H137.081V130.16ZM120.161 130.16H125.161V120.8H120.161H115.161V130.16H120.161ZM120.161 120.8V125.8H163.361V120.8V115.8H120.161V120.8ZM163.361 120.8H158.361V130.16H163.361H168.361V120.8H163.361ZM163.361 130.16V125.16H146.441V130.16V135.16H163.361V130.16ZM146.441 130.16H141.441V164H146.441H151.441V130.16H146.441ZM146.441 164V159H137.081V164V169H146.441V164ZM164.968 164H159.968V169H164.968V164ZM164.968 120.8V115.8H159.968V120.8H164.968ZM204.868 120.8H209.868V115.8H204.868V120.8ZM204.868 130.16V135.16H209.868V130.16H204.868ZM174.388 130.16V125.16H169.388V130.16H174.388ZM174.388 137.72H169.388V142.72H174.388V137.72ZM198.928 137.72H203.928V132.72H198.928V137.72ZM198.928 147.08V152.08H203.928V147.08H198.928ZM174.388 147.08V142.08H169.388V147.08H174.388ZM174.388 154.64H169.388V159.64H174.388V154.64ZM204.868 154.64H209.868V149.64H204.868V154.64ZM204.868 164V169H209.868V164H204.868ZM164.968 164H169.968V120.8H164.968H159.968V164H164.968ZM164.968 120.8V125.8H204.868V120.8V115.8H164.968V120.8ZM204.868 120.8H199.868V130.16H204.868H209.868V120.8H204.868ZM204.868 130.16V125.16H174.388V130.16V135.16H204.868V130.16ZM174.388 130.16H169.388V137.72H174.388H179.388V130.16H174.388ZM174.388 137.72V142.72H198.928V137.72V132.72H174.388V137.72ZM198.928 137.72H193.928V147.08H198.928H203.928V137.72H198.928ZM198.928 147.08V142.08H174.388V147.08V152.08H198.928V147.08ZM174.388 147.08H169.388V154.64H174.388H179.388V147.08H174.388ZM174.388 154.64V159.64H204.868V154.64V149.64H174.388V154.64ZM204.868 154.64H199.868V164H204.868H209.868V154.64H204.868ZM204.868 164V159H164.968V164V169H204.868V164ZM222.246 164L217.547 165.71L218.744 169H222.246V164ZM206.526 120.8V115.8H199.386L201.827 122.51L206.526 120.8ZM216.426 120.8L221.121 119.082L219.92 115.8H216.426V120.8ZM225.846 146.54L221.15 148.258L225.846 161.089L230.541 148.258L225.846 146.54ZM235.266 120.8V115.8H231.771L230.57 119.082L235.266 120.8ZM243.846 120.8L248.538 119.072L247.333 115.8H243.846V120.8ZM253.326 146.54L248.634 148.268L253.341 161.048L258.021 148.258L253.326 146.54ZM262.746 120.8V115.8H259.251L258.05 119.082L262.746 120.8ZM272.586 120.8L277.284 122.51L279.726 115.8H272.586V120.8ZM256.866 164V169H260.367L261.564 165.71L256.866 164ZM249.726 164L245.032 165.723L246.235 169H249.726V164ZM239.526 136.22L244.219 134.497L239.512 121.676L234.829 134.506L239.526 136.22ZM229.386 164V169H232.883L234.083 165.714L229.386 164ZM222.246 164L226.944 162.29L211.224 119.09L206.526 120.8L201.827 122.51L217.547 165.71L222.246 164ZM206.526 120.8V125.8H216.426V120.8V115.8H206.526V120.8ZM216.426 120.8L211.73 122.518L221.15 148.258L225.846 146.54L230.541 144.822L221.121 119.082L216.426 120.8ZM225.846 146.54L230.541 148.258L239.961 122.518L235.266 120.8L230.57 119.082L221.15 144.822L225.846 146.54ZM235.266 120.8V125.8H243.846V120.8V115.8H235.266V120.8ZM243.846 120.8L239.154 122.528L248.634 148.268L253.326 146.54L258.018 144.812L248.538 119.072L243.846 120.8ZM253.326 146.54L258.021 148.258L267.441 122.518L262.746 120.8L258.05 119.082L248.63 144.822L253.326 146.54ZM262.746 120.8V125.8H272.586V120.8V115.8H262.746V120.8ZM272.586 120.8L267.887 119.09L252.167 162.29L256.866 164L261.564 165.71L277.284 122.51L272.586 120.8ZM256.866 164V159H249.726V164V169H256.866V164ZM249.726 164L254.419 162.277L244.219 134.497L239.526 136.22L234.832 137.943L245.032 165.723L249.726 164ZM239.526 136.22L234.829 134.506L224.689 162.286L229.386 164L234.083 165.714L244.223 137.934L239.526 136.22ZM229.386 164V159H222.246V164V169H229.386V164ZM272.64 164H267.64V169H272.64V164ZM273.84 125.24L278.116 127.832L278.133 127.803L278.15 127.775L273.84 125.24ZM277.08 122L274.545 117.69L274.545 117.69L277.08 122ZM311.34 122L308.749 126.276L308.777 126.293L308.805 126.31L311.34 122ZM314.58 125.24L310.27 127.775L310.315 127.851L310.362 127.924L314.58 125.24ZM315.84 164V169H320.84V164H315.84ZM306.42 164H301.42V169H306.42V164ZM306.42 150.08H311.42V145.08H306.42V150.08ZM281.94 150.08V145.08H276.94V150.08H281.94ZM281.94 164V169H286.94V164H281.94ZM281.94 140.72H276.94V145.72H281.94V140.72ZM306.42 140.72V145.72H311.42V140.72H306.42ZM306.42 130.16H311.42V125.16H306.42V130.16ZM281.94 130.16V125.16H276.94V130.16H281.94ZM272.64 164H277.64V129.68H272.64H267.64V164H272.64ZM272.64 129.68H277.64C277.64 128.894 277.82 128.321 278.116 127.832L273.84 125.24L269.564 122.648C268.261 124.799 267.64 127.186 267.64 129.68H272.64ZM273.84 125.24L278.15 127.775C278.519 127.148 278.988 126.679 279.615 126.31L277.08 122L274.545 117.69C272.452 118.921 270.762 120.612 269.53 122.705L273.84 125.24ZM277.08 122L279.615 126.31C280.196 125.968 280.798 125.8 281.52 125.8V120.8V115.8C279.042 115.8 276.685 116.432 274.545 117.69L277.08 122ZM281.52 120.8V125.8H306.9V120.8V115.8H281.52V120.8ZM306.9 120.8V125.8C307.686 125.8 308.259 125.98 308.749 126.276L311.34 122L313.932 117.724C311.781 116.42 309.394 115.8 306.9 115.8V120.8ZM311.34 122L308.805 126.31C309.432 126.679 309.902 127.148 310.27 127.775L314.58 125.24L318.89 122.705C317.659 120.612 315.968 118.921 313.875 117.69L311.34 122ZM314.58 125.24L310.362 127.924C310.666 128.402 310.84 128.943 310.84 129.68H315.84H320.84C320.84 127.137 320.174 124.718 318.798 122.556L314.58 125.24ZM315.84 129.68H310.84V164H315.84H320.84V129.68H315.84ZM315.84 164V159H306.42V164V169H315.84V164ZM306.42 164H311.42V150.08H306.42H301.42V164H306.42ZM306.42 150.08V145.08H281.94V150.08V155.08H306.42V150.08ZM281.94 150.08H276.94V164H281.94H286.94V150.08H281.94ZM281.94 164V159H272.64V164V169H281.94V164ZM281.94 140.72V145.72H306.42V140.72V135.72H281.94V140.72ZM306.42 140.72H311.42V130.16H306.42H301.42V140.72H306.42ZM306.42 130.16V125.16H281.94V130.16V135.16H306.42V130.16ZM281.94 130.16H276.94V140.72H281.94H286.94V130.16H281.94ZM334.526 164H329.526V169H334.526V164ZM334.526 147.86H339.526V146.214L338.548 144.89L334.526 147.86ZM314.546 120.8V115.8H304.639L310.524 123.77L314.546 120.8ZM325.646 120.8L329.558 117.687L328.057 115.8H325.646V120.8ZM339.206 137.84L335.294 140.953L339.215 145.881L343.125 140.945L339.206 137.84ZM352.706 120.8V115.8H350.288L348.787 117.695L352.706 120.8ZM363.926 120.8L367.947 123.771L373.838 115.8H363.926V120.8ZM343.886 147.92L339.865 144.949L338.886 146.273V147.92H343.886ZM343.886 164V169H348.886V164H343.886ZM334.526 164H339.526V147.86H334.526H329.526V164H334.526ZM334.526 147.86L338.548 144.89L318.568 117.83L314.546 120.8L310.524 123.77L330.504 150.83L334.526 147.86ZM314.546 120.8V125.8H325.646V120.8V115.8H314.546V120.8ZM325.646 120.8L321.734 123.913L335.294 140.953L339.206 137.84L343.118 134.727L329.558 117.687L325.646 120.8ZM339.206 137.84L343.125 140.945L356.625 123.905L352.706 120.8L348.787 117.695L335.287 134.735L339.206 137.84ZM352.706 120.8V125.8H363.926V120.8V115.8H352.706V120.8ZM363.926 120.8L359.905 117.829L339.865 144.949L343.886 147.92L347.907 150.891L367.947 123.771L363.926 120.8ZM343.886 147.92H338.886V164H343.886H348.886V147.92H343.886ZM343.886 164V159H334.526V164V169H343.886V164ZM368.106 162.8L370.641 158.49L370.641 158.49L368.106 162.8ZM364.866 159.56L360.556 162.095L360.556 162.095L364.866 159.56ZM363.666 151.1V146.1H358.666V151.1H363.666ZM372.966 151.1H377.966V146.1H372.966V151.1ZM372.966 154.64H367.966V159.64H372.966V154.64ZM397.446 154.64V159.64H402.446V154.64H397.446ZM397.446 147.08H402.446V142.08H397.446V147.08ZM368.106 145.88L370.641 141.57L370.641 141.57L368.106 145.88ZM364.866 142.7L360.556 145.235L360.573 145.263L360.59 145.292L364.866 142.7ZM364.866 125.24L369.142 127.832L369.159 127.803L369.175 127.775L364.866 125.24ZM368.106 122L365.571 117.69L365.571 117.69L368.106 122ZM402.366 122L399.774 126.276L399.802 126.293L399.831 126.31L402.366 122ZM405.606 125.24L401.296 127.775L401.34 127.851L401.387 127.924L405.606 125.24ZM406.866 133.7V138.7H411.866V133.7H406.866ZM397.446 133.7H392.446V138.7H397.446V133.7ZM397.446 130.16H402.446V125.16H397.446V130.16ZM372.966 130.16V125.16H367.966V130.16H372.966ZM372.966 137.72H367.966V142.72H372.966V137.72ZM402.366 138.92L399.774 143.196L399.802 143.213L399.831 143.23L402.366 138.92ZM405.606 142.16L401.296 144.695L401.34 144.771L401.387 144.844L405.606 142.16ZM405.606 159.56L401.352 156.933L401.323 156.978L401.296 157.025L405.606 159.56ZM402.366 162.8L399.831 158.49L399.802 158.507L399.774 158.524L402.366 162.8ZM372.546 164V159C371.824 159 371.221 158.832 370.641 158.49L368.106 162.8L365.571 167.11C367.71 168.368 370.067 169 372.546 169V164ZM368.106 162.8L370.641 158.49C370.014 158.121 369.544 157.652 369.175 157.025L364.866 159.56L360.556 162.095C361.787 164.188 363.478 165.879 365.571 167.11L368.106 162.8ZM364.866 159.56L369.175 157.025C368.834 156.445 368.666 155.842 368.666 155.12H363.666H358.666C358.666 157.598 359.297 159.955 360.556 162.095L364.866 159.56ZM363.666 155.12H368.666V151.1H363.666H358.666V155.12H363.666ZM363.666 151.1V156.1H372.966V151.1V146.1H363.666V151.1ZM372.966 151.1H367.966V154.64H372.966H377.966V151.1H372.966ZM372.966 154.64V159.64H397.446V154.64V149.64H372.966V154.64ZM397.446 154.64H402.446V147.08H397.446H392.446V154.64H397.446ZM397.446 147.08V142.08H372.546V147.08V152.08H397.446V147.08ZM372.546 147.08V142.08C371.824 142.08 371.221 141.912 370.641 141.57L368.106 145.88L365.571 150.19C367.71 151.448 370.067 152.08 372.546 152.08V147.08ZM368.106 145.88L370.641 141.57C369.978 141.18 369.503 140.704 369.142 140.108L364.866 142.7L360.59 145.292C361.829 147.336 363.514 148.98 365.571 150.19L368.106 145.88ZM364.866 142.7L369.175 140.165C368.846 139.604 368.666 138.985 368.666 138.2H363.666H358.666C358.666 140.695 359.286 143.076 360.556 145.235L364.866 142.7ZM363.666 138.2H368.666V129.68H363.666H358.666V138.2H363.666ZM363.666 129.68H368.666C368.666 128.894 368.845 128.321 369.142 127.832L364.866 125.24L360.59 122.648C359.286 124.799 358.666 127.186 358.666 129.68H363.666ZM364.866 125.24L369.175 127.775C369.544 127.148 370.014 126.679 370.641 126.31L368.106 122L365.571 117.69C363.478 118.921 361.787 120.612 360.556 122.705L364.866 125.24ZM368.106 122L370.641 126.31C371.221 125.968 371.824 125.8 372.546 125.8V120.8V115.8C370.067 115.8 367.71 116.432 365.571 117.69L368.106 122ZM372.546 120.8V125.8H397.986V120.8V115.8H372.546V120.8ZM397.986 120.8V125.8C398.707 125.8 399.265 125.967 399.774 126.276L402.366 122L404.957 117.724C402.826 116.433 400.464 115.8 397.986 115.8V120.8ZM402.366 122L399.831 126.31C400.458 126.679 400.927 127.148 401.296 127.775L405.606 125.24L409.915 122.705C408.684 120.612 406.994 118.921 404.901 117.69L402.366 122ZM405.606 125.24L401.387 127.924C401.692 128.402 401.866 128.943 401.866 129.68H406.866H411.866C411.866 127.137 411.2 124.718 409.824 122.556L405.606 125.24ZM406.866 129.68H401.866V133.7H406.866H411.866V129.68H406.866ZM406.866 133.7V128.7H397.446V133.7V138.7H406.866V133.7ZM397.446 133.7H402.446V130.16H397.446H392.446V133.7H397.446ZM397.446 130.16V125.16H372.966V130.16V135.16H397.446V130.16ZM372.966 130.16H367.966V137.72H372.966H377.966V130.16H372.966ZM372.966 137.72V142.72H397.986V137.72V132.72H372.966V137.72ZM397.986 137.72V142.72C398.707 142.72 399.265 142.887 399.774 143.196L402.366 138.92L404.957 134.644C402.826 133.353 400.464 132.72 397.986 132.72V137.72ZM402.366 138.92L399.831 143.23C400.458 143.599 400.927 144.068 401.296 144.695L405.606 142.16L409.915 139.625C408.684 137.532 406.994 135.841 404.901 134.61L402.366 138.92ZM405.606 142.16L401.387 144.844C401.692 145.322 401.866 145.863 401.866 146.6H406.866H411.866C411.866 144.057 411.2 141.638 409.824 139.476L405.606 142.16ZM406.866 146.6H401.866V155.12H406.866H411.866V146.6H406.866ZM406.866 155.12H401.866C401.866 155.793 401.704 156.363 401.352 156.933L405.606 159.56L409.86 162.187C411.188 160.037 411.866 157.647 411.866 155.12H406.866ZM405.606 159.56L401.296 157.025C400.927 157.652 400.458 158.121 399.831 158.49L402.366 162.8L404.901 167.11C406.994 165.879 408.684 164.188 409.915 162.095L405.606 159.56ZM402.366 162.8L399.774 158.524C399.265 158.833 398.707 159 397.986 159V164V169C400.464 169 402.826 168.367 404.957 167.076L402.366 162.8ZM397.986 164V159H372.546V164V169H397.986V164Z" fill="black" mask="url(#path-2-outside-1_38_2)"/>
<defs>
<linearGradient id="paint0_linear_38_2" x1="435" y1="150" x2="0" y2="150" gradientUnits="userSpaceOnUse">
<stop stop-color="#00FFFF"/>
<stop offset="0.509615" stop-color="#D4FF00"/>
</linearGradient>
</defs>
</svg>
