<svg width="379" height="44" viewBox="0 0 379 44" fill="none" xmlns="http://www.w3.org/2000/svg">
<path d="M9.24 44C7.64 44 6.16 43.6 4.8 42.8C3.44 42 2.36 40.92 1.56 39.56C0.76 38.2 0.36 36.72 0.36 35.12V9.68C0.36 8.04 0.76 6.56 1.56 5.24C2.36 3.88 3.44 2.8 4.8 2C6.16 1.2 7.64 0.799998 9.24 0.799998H34.62C36.26 0.799998 37.74 1.2 39.06 2C40.42 2.8 41.5 3.88 42.3 5.24C43.14 6.56 43.56 8.04 43.56 9.68V13.76H34.14V10.16H9.66V34.64H34.14V28.16H24.78V18.8H43.56V35.12C43.56 36.72 43.14 38.2 42.3 39.56C41.5 40.92 40.42 42 39.06 42.8C37.74 43.6 36.26 44 34.62 44H9.24ZM47.2847 44V9.68C47.2847 8.04 47.6847 6.56 48.4847 5.24C49.2847 3.88 50.3647 2.8 51.7247 2C53.0847 1.2 54.5647 0.799998 56.1647 0.799998H81.5447C83.1847 0.799998 84.6647 1.2 85.9847 2C87.3447 2.8 88.4247 3.88 89.2247 5.24C90.0647 6.56 90.4847 8.04 90.4847 9.68V44H81.0647V30.08H56.5847V44H47.2847ZM56.5847 20.72H81.0647V10.16H56.5847V20.72ZM109.081 44V10.16H92.1609V0.799998H135.361V10.16H118.441V44H109.081ZM136.968 44V0.799998H176.868V10.16H146.388V17.72H170.928V27.08H146.388V34.64H176.868V44H136.968ZM194.246 44L178.526 0.799998H188.426L197.846 26.54L207.266 0.799998H215.846L225.326 26.54L234.746 0.799998H244.586L228.866 44H221.726L211.526 16.22L201.386 44H194.246ZM244.64 44V9.68C244.64 8.04 245.04 6.56 245.84 5.24C246.64 3.88 247.72 2.8 249.08 2C250.44 1.2 251.92 0.799998 253.52 0.799998H278.9C280.54 0.799998 282.02 1.2 283.34 2C284.7 2.8 285.78 3.88 286.58 5.24C287.42 6.56 287.84 8.04 287.84 9.68V44H278.42V30.08H253.94V44H244.64ZM253.94 20.72H278.42V10.16H253.94V20.72ZM306.526 44V27.86L286.546 0.799998H297.646L311.206 17.84L324.706 0.799998H335.926L315.886 27.92V44H306.526ZM344.546 44C342.946 44 341.466 43.6 340.106 42.8C338.746 42 337.666 40.92 336.866 39.56C336.066 38.2 335.666 36.72 335.666 35.12V31.1H344.966V34.64H369.446V27.08H344.546C342.946 27.08 341.466 26.68 340.106 25.88C338.746 25.08 337.666 24.02 336.866 22.7C336.066 21.34 335.666 19.84 335.666 18.2V9.68C335.666 8.04 336.066 6.56 336.866 5.24C337.666 3.88 338.746 2.8 340.106 2C341.466 1.2 342.946 0.799998 344.546 0.799998H369.986C371.586 0.799998 373.046 1.2 374.366 2C375.726 2.8 376.806 3.88 377.606 5.24C378.446 6.56 378.866 8.04 378.866 9.68V13.7H369.446V10.16H344.966V17.72H369.986C371.586 17.72 373.046 18.12 374.366 18.92C375.726 19.72 376.806 20.8 377.606 22.16C378.446 23.48 378.866 24.96 378.866 26.6V35.12C378.866 36.72 378.446 38.2 377.606 39.56C376.806 40.92 375.726 42 374.366 42.8C373.046 43.6 371.586 44 369.986 44H344.546Z" fill="white"/>
</svg>
